# xmcd CD database file
#
# Track frame offsets:
#	150
#	13382
#	25617
#	39750
#	52902
#	66305
#	76480
#	89500
#	103077
#	115940
#	128890
#	141640
#
# Disc length: 2036 seconds
#
# Revision: 2
# Processed by: cddbd v1.5PL3 Copyright (c) Steve Scherf et al.
# Submitted via: CDex 1.50
#
DISCID=a307f20c
DTITLE=Howlin' Wolf - Moanin' At Moonlight
DYEAR=1959
DGENRE=Blues
TTITLE0=Moanin' At Midnight
TTITLE1=How Many More Years
TTITLE2=Smokestack Lightnin'
TTITLE3=Baby How Long
TTITLE4=No Place To Go
TTITLE5=All Night Boogie
TTITLE6=Evil
TTITLE7=I'm Leavin' You
TTITLE8=Moanin' For My Baby
TTITLE9=I Asked For Water (She Gave Me Gasoline)
TTITLE10=Forty Four
TTITLE11=Somebody In My Home
EXTD=YEAR: 1959
EXTT0=
EXTT1=
EXTT2=
EXTT3=
EXTT4=
EXTT5=
EXTT6=
EXTT7=
EXTT8=
EXTT9=
EXTT10=
EXTT11=
PLAYORDER=
